<svg viewBox="0 0 15 15" fill="none" xmlns="http://www.w3.org/2000/svg">
  <path d="M4.34729 4.75H2.34729C1.79501 4.75 1.34729 5.19772 1.34729 5.75V9.75C1.34729 10.3023 1.79501 10.75 2.34729 10.75H4.34729C4.89957 10.75 5.34729 10.3023 5.34729 9.75V5.75C5.34729 5.19772 4.89957 4.75 4.34729 4.75Z" stroke="currentColor" stroke-linecap="round" stroke-linejoin="round"/>
  <path d="M13.3473 4.75H11.3473C10.795 4.75 10.3473 5.19772 10.3473 5.75V9.75C10.3473 10.3023 10.795 10.75 11.3473 10.75H13.3473C13.8996 10.75 14.3473 10.3023 14.3473 9.75V5.75C14.3473 5.19772 13.8996 4.75 13.3473 4.75Z" stroke="currentColor" stroke-linecap="round" stroke-linejoin="round"/>
  <path d="M5.34729 7.75H10.3473" stroke="currentColor" stroke-linecap="round" stroke-linejoin="round"/>
</svg>
