<svg width="12" height="14" viewBox="0 0 12 14" fill="none" xmlns="http://www.w3.org/2000/svg">
<path d="M5.40586 3.06923C5.98828 3.06923 6.71836 2.66338 7.15312 2.12225C7.54688 1.63185 7.83398 0.94698 7.83398 0.26211C7.83398 0.169103 7.82578 0.0760966 7.80937 0C7.16133 0.0253655 6.38203 0.448124 5.91445 1.01462C5.54531 1.44584 5.20898 2.12225 5.20898 2.81558C5.20898 2.91704 5.22539 3.0185 5.23359 3.05232C5.27461 3.06078 5.34023 3.06923 5.40586 3.06923ZM3.35508 13.3C4.15078 13.3 4.50352 12.7504 5.49609 12.7504C6.50508 12.7504 6.72656 13.2831 7.6125 13.2831C8.48203 13.2831 9.06445 12.4545 9.61406 11.6428C10.2293 10.7127 10.4836 9.79955 10.5 9.75728C10.4426 9.74037 8.77734 9.03859 8.77734 7.06853C8.77734 5.36058 10.0898 4.59116 10.1637 4.53198C9.29414 3.24679 7.97344 3.21297 7.6125 3.21297C6.63633 3.21297 5.84062 3.82174 5.34023 3.82174C4.79883 3.82174 4.08516 3.24679 3.24023 3.24679C1.63242 3.24679 0 4.61653 0 7.20381C0 8.8103 0.607031 10.5098 1.35352 11.609C1.99336 12.539 2.55117 13.3 3.35508 13.3Z" fill="black"/>
</svg>
